PathFileType	4	(X/Y/Z)	SUBJ32_2_walk_RCNL2025.trc
DataRate	CameraRate	NumFrames	NumMarkers	Units	OrigDataRate	OrigDataStartFrame	OrigNumFrames
100	100	5	25	mm	100	161	428
Frame#	Time	R_Shoulder			L_Shoulder			C7			J_Notch			R_Elbow			L_Elbow			R_Wrist			L_Wrist			R_Asis			L_Asis			Sacral			Thoracic			Sternum			R_Thigh_Lateral			R_Knee_Lateral			R_Shank_Lateral			R_Ankle_Lateral			R_Heel			R_Toe			L_Thigh_Lateral			L_Knee_Lateral			L_Shank_Lateral			L_Ankle_Lateral			L_Heel			L_Toe		
		X1	Y1	Z1	X2	Y2	Z2	X3	Y3	Z3	X4	Y4	Z4	X5	Y5	Z5	X6	Y6	Z6	X7	Y7	Z7	X8	Y8	Z8	X9	Y9	Z9	X10	Y10	Z10	X11	Y11	Z11	X12	Y12	Z12	X13	Y13	Z13	X14	Y14	Z14	X15	Y15	Z15	X16	Y16	Z16	X17	Y17	Z17	X18	Y18	Z18	X19	Y19	Z19	X20	Y20	Z20	X21	Y21	Z21	X22	Y22	Z22	X23	Y23	Z23	X24	Y24	Z24	X25	Y25	Z25
161	1.60000000	-312.540833	1360.253174	32.837444	-331.147980	1375.497314	-346.090118	-359.893372	1439.807129	-142.331177	-233.101639	1346.758789	-157.352509	-394.884705	1025.075195	108.420547	-424.031464	1066.050415	-441.564636	-350.650055	779.834534	115.255108	-382.680389	810.892548	-465.079742	-243.616943	911.147156	-54.867161	-252.564331	902.706177	-304.240967	-447.955597	949.009460	-169.953598	-447.823395	1207.544067	-157.484100	-159.657654	1118.469238	-170.017349	-320.867371	543.463379	13.881613	-312.903656	447.806000	-33.309723	-323.547516	286.078430	29.944086	-340.482697	65.691742	-93.106529	-393.938721	58.498009	-144.022491	-210.252762	49.508614	-130.219711	-272.103516	570.106750	-427.018555	-255.439636	478.783203	-393.366821	-385.382172	309.037140	-414.667999	-529.181030	187.430527	-324.511658	-573.943176	215.791931	-279.853333	-445.785706	86.862526	-292.964905
162	1.61000000	-303.287354	1361.018799	33.386372	-322.013458	1375.472290	-345.641418	-349.935028	1440.635254	-142.011246	-223.585587	1347.234863	-156.775040	-384.168640	1025.533325	109.317932	-416.056183	1065.690796	-439.405518	-338.607147	780.540497	116.277168	-375.815781	810.207489	-461.638977	-234.494293	911.598022	-53.470139	-241.692261	903.558105	-302.854095	-438.100098	949.463806	-169.995148	-438.300873	1208.018066	-156.964066	-149.973572	1119.152832	-168.668777	-316.826447	543.911743	14.242026	-310.258820	448.036133	-33.229996	-322.737244	286.270203	29.981567	-340.440216	65.820869	-93.235291	-393.757355	58.765266	-144.339951	-210.227753	49.490147	-129.920502	-254.806335	572.004944	-425.690063	-236.406754	481.012878	-391.620270	-361.621185	307.260162	-413.162811	-501.887939	180.755707	-323.221924	-547.749023	206.794769	-277.904785	-413.194580	84.845276	-292.835083
163	1.62000000	-294.094086	1361.618286	33.861351	-312.807220	1375.263916	-345.260162	-339.992889	1441.278931	-141.774490	-214.080032	1347.517090	-156.245453	-373.536163	1025.840088	110.154053	-408.023804	1065.168457	-437.316864	-326.686127	781.094940	117.287746	-368.922195	809.365936	-458.244095	-225.391083	911.849731	-52.160999	-230.909180	904.203491	-301.529663	-428.294922	949.754150	-170.097031	-428.813293	1208.329590	-156.541443	-140.326569	1119.630859	-167.329010	-312.728516	544.323425	14.560522	-307.514191	448.248444	-33.206463	-321.783752	286.472839	29.996363	-340.382935	65.966644	-93.393639	-393.546814	59.055382	-144.687637	-210.217819	49.455299	-129.643448	-237.830795	573.736389	-424.315308	-217.779968	483.106567	-389.791504	-337.828552	305.110931	-411.586487	-473.908356	173.399139	-321.839111	-520.659912	196.916443	-275.721527	-380.111969	82.415627	-292.988953
164	1.63000000	-284.945801	1362.051025	34.264217	-303.513885	1374.874390	-344.944366	-330.057465	1441.735229	-141.617065	-204.572968	1347.602539	-155.762329	-362.981689	1025.996460	110.931267	-399.917694	1064.489014	-435.306244	-314.881439	781.498596	118.285118	-361.983307	808.373810	-454.903015	-216.310989	911.903076	-50.940002	-220.211548	904.634094	-300.270935	-418.531921	949.877930	-170.253296	-419.348877	1208.476196	-156.214935	-130.707443	1119.898926	-166.002121	-308.560608	544.687683	14.841941	-304.658234	448.429901	-33.231884	-320.724640	286.691772	29.989683	-340.309387	66.124176	-93.581833	-393.306549	59.365170	-145.067719	-210.221725	49.409153	-129.387329	-221.205658	575.276184	-422.903778	-199.594467	485.031830	-387.895630	-314.052032	302.652740	-409.950439	-445.221497	165.475433	-320.393677	-492.680786	186.324371	-273.412964	-346.551239	79.654655	-293.337982
165	1.64000000	-275.827118	1362.317993	34.596485	-294.120697	1374.307129	-344.692474	-320.119232	1442.003174	-141.535492	-195.052658	1347.489990	-155.325012	-352.499756	1026.005005	111.652039	-391.722839	1063.658691	-433.381348	-303.187210	781.753815	119.267937	-354.982880	807.237823	-451.623947	-207.254883	911.762939	-49.802708	-209.594604	904.844055	-299.080414	-408.803040	949.834534	-170.458588	-409.895599	1208.457275	-155.982910	-121.107178	1119.955078	-164.693420	-304.306793	544.991028	15.087906	-301.679352	448.568298	-33.300407	-319.589905	286.927704	29.956341	-340.217651	66.289749	-93.801735	-393.038605	59.690823	-145.483765	-210.232559	49.359276	-129.151962	-204.950516	576.604736	-421.469849	-181.888519	486.757507	-385.948975	-290.339752	299.946808	-408.267487	-415.817047	157.103897	-318.909760	-463.825317	175.194031	-271.072418	-312.528107	76.656052	-293.784058
